 <svg  version="1.0" xmlns="http://www.w3.org/2000/svg"  width="450.000000pt" height="340.000000pt" viewBox="0 0 450.000000 340.000000"  preserveAspectRatio="xMidYMid meet">  <g transform="translate(0.000000,340.000000) scale(0.100000,-0.100000)" fill="#000000" stroke="none"> <path d="M1963 3085 c0 -40 3 -45 23 -45 14 0 25 8 29 20 8 24 -1 40 -21 40 -8 0 -14 7 -14 15 0 8 -4 15 -8 15 -5 0 -9 -20 -9 -45z m42 -15 c0 -7 -6 -15 -12 -17 -8 -3 -13 4 -13 17 0 13 5 20 13 18 6 -3 12 -11 12 -18z"/> <path d="M2025 3120 c-3 -5 -1 -10 4 -10 6 0 11 5 11 10 0 6 -2 10 -4 10 -3 0 -8 -4 -11 -10z"/> <path d="M2113 3085 c0 -27 2 -38 4 -22 2 15 2 37 0 50 -2 12 -4 0 -4 -28z"/> <path d="M1850 3080 c0 -37 2 -40 28 -39 16 1 20 3 10 6 -13 3 -18 15 -18 39 0 19 -4 34 -10 34 -5 0 -10 -18 -10 -40z"/> <path d="M1910 3090 c0 -5 7 -7 15 -4 10 4 15 0 15 -15 0 -12 -5 -21 -11 -21 -5 0 -7 5 -4 10 3 6 1 10 -4 10 -6 0 -11 -7 -11 -15 0 -8 9 -15 20 -15 16 0 20 7 20 30 0 23 -4 30 -20 30 -11 0 -20 -4 -20 -10z"/> <path d="M2032 3070 c0 -19 2 -27 5 -17 2 9 2 25 0 35 -3 9 -5 1 -5 -18z"/> <path d="M2068 3094 c17 -8 15 -24 -3 -24 -8 0 -15 -7 -15 -15 0 -9 10 -15 26 -15 22 0 25 4 22 27 -2 19 -9 29 -23 30 -11 2 -14 0 -7 -3z"/> <path d="M1725 3044 c-147 -27 -366 -99 -419 -139 -18 -14 -18 -15 0 -59 11 -25 22 -46 27 -46 11 0 9 7 -13 49 l-19 38 77 36 c105 48 227 85 349 105 57 9 103 20 103 25 0 9 -7 8 -105 -9z"/> <path d="M2155 3051 c11 -5 56 -14 100 -21 115 -17 236 -55 348 -107 l97 -46 -16 -24 c-8 -13 -13 -30 -11 -36 4 -12 37 43 37 61 0 25 -230 118 -374 152 -92 21 -213 36 -181 21z"/> <path d="M3932 3008 l-2 -47 51 1 c48 0 50 1 47 26 -2 18 -10 28 -23 29 -20 3 -20 3 0 -6 19 -8 19 -8 -2 -15 -13 -4 -23 -12 -23 -17 0 -5 -9 -9 -19 -9 -16 0 -21 8 -24 43 l-4 42 -1 -47z m83 -28 c-3 -5 -11 -10 -16 -10 -6 0 -7 5 -4 10 3 6 11 10 16 10 6 0 7 -4 4 -10z"/> <path d="M4041 3007 c-1 -45 1 -48 22 -45 30 4 37 47 8 55 -11 3 -22 12 -24 22 -3 9 -5 -6 -6 -32z m39 -17 c0 -11 -7 -20 -15 -20 -8 0 -15 9 -15 20 0 11 7 20 15 20 8 0 15 -9 15 -20z"/> <path d="M4100 3040 c0 -5 5 -10 11 -10 5 0 7 5 4 10 -3 6 -8 10 -11 10 -2 0 -4 -4 -4 -10z"/> <path d="M4180 3005 c0 -25 5 -45 10 -45 6 0 10 20 10 45 0 25 -4 45 -10 45 -5 0 -10 -20 -10 -45z"/> <path d="M3710 3005 c0 -12 14 -15 65 -15 51 0 65 3 65 15 0 12 -14 15 -65 15 -51 0 -65 -3 -65 -15z"/> <path d="M4102 2990 c0 -19 2 -27 5 -17 2 9 2 25 0 35 -3 9 -5 1 -5 -18z"/> <path d="M4143 3013 c18 -5 17 -6 -2 -20 -24 -16 -19 -33 10 -33 14 0 19 7 19 30 0 25 -4 30 -22 29 -19 -1 -20 -2 -5 -6z m17 -33 c0 -5 -4 -10 -10 -10 -5 0 -10 5 -10 10 0 6 5 10 10 10 6 0 10 -4 10 -10z"/> <path d="M1810 2921 c-116 -7 -138 -18 -147 -73 -6 -38 -7 -40 -15 -18 -5 14 -14 27 -20 31 -15 10 -59 -5 -104 -35 -22 -14 -61 -32 -87 -40 -66 -20 -97 -42 -97 -69 0 -74 153 -255 233 -278 78 -21 147 20 147 88 l0 38 20 -32 c27 -45 53 -56 113 -48 42 6 59 14 87 44 20 21 41 56 48 78 7 23 19 54 27 70 l15 28 0 -26 c0 -38 26 -107 55 -145 16 -21 38 -35 69 -43 68 -17 85 -14 122 23 29 29 34 31 34 14 0 -50 51 -89 117 -87 54 1 63 6 142 81 74 70 121 147 121 197 0 33 -19 47 -95 71 -22 7 -61 25 -86 41 -25 16 -60 32 -77 35 -28 6 -33 3 -43 -22 l-12 -29 -7 34 c-14 58 -27 64 -162 72 -134 8 -164 1 -184 -39 l-12 -23 -6 24 c-6 25 -51 49 -85 45 -9 -1 -59 -4 -111 -7z m180 -26 c53 -64 -6 -342 -81 -380 -38 -20 -112 -23 -134 -5 -20 17 -59 93 -91 178 -22 58 -23 69 -13 127 6 35 16 68 22 74 16 12 43 16 173 19 91 2 113 0 124 -13z m351 -14 c10 -12 21 -47 25 -77 5 -47 2 -67 -21 -127 -40 -104 -76 -168 -100 -177 -29 -11 -114 6 -138 27 -45 42 -77 150 -78 266 -1 117 2 119 165 114 118 -4 132 -7 147 -26z m-717 -66 c-8 -32 15 -127 29 -118 6 4 7 1 2 -6 -4 -7 0 -31 8 -54 20 -55 27 -99 21 -125 -8 -27 -56 -46 -95 -38 -45 9 -155 108 -184 167 -37 72 -34 86 25 103 27 8 78 31 113 50 35 20 67 33 70 29 4 -3 7 -1 7 5 0 7 2 12 5 12 3 0 3 -11 -1 -25z m883 -25 c43 -22 85 -40 94 -40 9 0 26 -8 38 -17 l21 -18 -28 -60 c-21 -43 -47 -76 -90 -113 -77 -67 -108 -78 -156 -58 -33 14 -36 18 -36 55 0 23 14 81 30 131 17 50 30 99 30 109 0 21 10 51 16 51 2 0 39 -18 81 -40z m-110 -2 c-3 -7 -5 -2 -5 12 0 14 2 19 5 13 2 -7 2 -19 0 -25z m-747 -4 c0 -8 -5 -12 -10 -9 -6 4 -8 11 -5 16 9 14 15 11 15 -7z m685 -224 c0 -33 -9 -39 -19 -14 -4 9 -1 23 5 30 15 18 14 19 14 -16z"/> <path d="M1745 2847 c-14 -5 -28 -19 -31 -33 -14 -57 40 -185 93 -219 22 -15 20 -9 -14 27 -47 52 -66 103 -61 168 l3 45 90 6 c50 4 96 4 103 2 8 -4 13 -31 14 -82 l2 -76 3 74 c3 45 0 78 -7 85 -13 13 -158 15 -195 3z"/> <path d="M2097 2848 c-13 -7 -17 -23 -17 -71 0 -34 4 -68 9 -76 5 -8 7 12 4 52 -8 92 -3 96 105 90 48 -3 93 -10 100 -16 30 -24 -2 -148 -53 -203 -43 -46 -46 -58 -4 -18 44 41 70 99 76 164 4 42 2 59 -10 68 -18 15 -187 24 -210 10z"/> <path d="M1498 2740 c-38 -21 -68 -55 -68 -78 0 -7 30 -47 67 -88 56 -63 71 -74 97 -73 l31 1 -32 8 c-31 7 -108 80 -143 136 -13 21 -12 25 5 45 29 31 92 61 123 57 24 -3 30 -12 59 -93 17 -49 32 -85 32 -79 1 9 -35 121 -54 167 -10 23 -69 22 -117 -3z"/> <path d="M2442 2773 c-35 -31 -78 -192 -54 -206 4 -3 7 16 8 41 0 26 11 73 23 105 20 52 25 57 52 57 54 0 129 -48 129 -82 0 -11 -28 -51 -62 -89 -49 -55 -68 -69 -93 -70 l-30 -2 29 -4 c24 -4 38 4 88 54 103 101 107 133 18 178 -70 35 -85 38 -108 18z"/> <path d="M4223 2845 c0 -27 2 -38 4 -22 2 15 2 37 0 50 -2 12 -4 0 -4 -28z"/> <path d="M3930 2840 c0 -36 3 -40 24 -40 31 0 35 7 29 48 -4 26 -10 32 -29 32 -21 0 -24 -5 -24 -40z m40 20 c0 -5 -7 -10 -15 -10 -8 0 -15 5 -15 10 0 6 7 10 15 10 8 0 15 -4 15 -10z m-6 -26 c18 -7 12 -24 -10 -24 -8 0 -14 7 -14 15 0 17 2 18 24 9z"/> <path d="M4001 2833 c-1 -29 2 -33 24 -33 22 0 25 4 24 33 -2 30 -2 30 -6 5 -2 -16 -10 -28 -18 -28 -8 0 -16 12 -18 28 -4 25 -4 25 -6 -5z"/> <path d="M4067 2853 c-4 -3 -7 -16 -7 -29 0 -23 25 -40 35 -24 4 6 -1 10 -9 10 -22 0 -20 37 2 43 14 4 14 5 1 6 -9 0 -19 -2 -22 -6z"/> <path d="M4117 2853 c-4 -3 -7 -16 -7 -29 0 -23 25 -40 35 -24 4 6 -1 10 -9 10 -22 0 -20 37 2 43 14 4 14 5 1 6 -9 0 -19 -2 -22 -6z"/> <path d="M4165 2851 c-3 -7 0 -8 9 -5 9 3 16 2 16 -4 0 -5 -7 -12 -15 -16 -24 -9 -17 -26 11 -26 22 0 25 4 22 27 -3 28 -30 43 -43 24z m32 -37 c-3 -3 -12 -4 -19 -1 -8 3 -5 6 6 6 11 1 17 -2 13 -5z"/> <path d="M3710 2835 c0 -12 14 -15 65 -15 51 0 65 3 65 15 0 12 -14 15 -65 15 -51 0 -65 -3 -65 -15z"/> <path d="M977 2588 c-63 -95 -134 -209 -159 -253 -102 -180 -267 -530 -247 -523 6 2 32 53 58 113 116 267 247 497 463 809 4 6 17 1 32 -13 14 -14 29 -21 33 -18 3 4 -2 14 -13 22 -52 41 -45 46 -167 -137z"/> <path d="M2895 2744 c-11 -9 -27 -19 -35 -24 -8 -5 -11 -12 -7 -16 4 -4 18 3 32 16 14 13 27 22 29 19 25 -29 147 -211 208 -312 79 -132 218 -401 278 -539 19 -43 37 -78 41 -78 19 0 -142 341 -251 530 -65 113 -213 342 -257 397 -16 20 -20 21 -38 7z"/> <path d="M3936 2704 c-9 -8 -16 -22 -16 -29 0 -17 27 -45 43 -45 36 1 56 49 32 74 -21 20 -39 20 -59 0z m49 -29 c0 -23 -4 -30 -20 -30 -21 0 -31 25 -21 51 11 28 41 12 41 -21z"/> <path d="M4110 2675 c0 -25 5 -45 10 -45 6 0 10 20 10 45 0 25 -4 45 -10 45 -5 0 -10 -20 -10 -45z"/> <path d="M4033 2693 c-7 -3 -12 -19 -12 -36 2 -28 2 -29 6 -7 3 14 10 28 16 32 14 9 6 17 -10 11z"/> <path d="M4065 2691 c-3 -6 2 -11 12 -11 15 0 14 -2 -5 -16 -25 -17 -21 -34 9 -34 17 0 20 6 17 32 -3 32 -21 48 -33 29z m25 -41 c0 -5 -4 -10 -10 -10 -5 0 -10 5 -10 10 0 6 5 10 10 10 6 0 10 -4 10 -10z"/> <path d="M1199 2667 c-38 -25 -72 -87 -90 -164 -10 -44 -10 -56 4 -76 15 -23 14 -24 -28 -35 -49 -13 -99 -52 -120 -93 -22 -42 -20 -141 5 -171 l19 -25 -42 -13 c-112 -32 -138 -77 -108 -180 10 -36 22 -73 26 -82 6 -14 2 -18 -16 -18 -31 -1 -100 -32 -119 -55 -9 -11 -17 -55 -22 -124 -4 -58 -11 -127 -14 -154 -4 -35 -2 -54 10 -72 19 -30 20 -35 3 -35 -15 0 -59 -45 -75 -76 -23 -44 -73 -247 -68 -270 4 -14 23 -44 43 -67 21 -23 31 -36 23 -29 -8 6 -26 12 -41 12 -56 0 -99 -91 -99 -209 0 -57 40 -143 80 -172 14 -10 71 -30 127 -45 125 -31 150 -26 217 46 56 59 66 84 66 157 0 49 -4 59 -34 89 -34 34 -34 34 -9 34 13 0 33 5 43 10 29 15 68 89 90 169 32 113 25 169 -28 223 l-26 28 26 0 c36 0 90 40 109 80 31 67 59 165 59 210 0 52 -28 119 -65 155 l-25 26 54 24 c30 13 60 33 65 44 6 11 11 50 11 87 0 56 -4 72 -22 91 l-21 23 37 0 c30 0 45 7 73 35 35 35 35 35 32 113 l-4 77 32 2 c48 2 103 32 124 67 13 22 19 50 19 94 0 35 -4 61 -8 58 -5 -3 -38 23 -74 57 -67 64 -118 137 -95 137 7 1 1 10 -12 20 -32 27 -89 26 -132 -3z m145 -66 c17 -25 55 -69 85 -98 52 -50 54 -54 52 -104 0 -29 -3 -60 -6 -69 -7 -21 -51 -47 -95 -54 -33 -6 -40 -2 -110 61 -86 79 -130 109 -130 92 0 -7 -2 -10 -5 -8 -8 8 24 128 46 170 40 79 113 84 163 10z m-104 -293 c50 -44 93 -92 96 -105 4 -13 3 -48 -1 -78 -5 -44 -12 -59 -38 -81 -27 -22 -37 -25 -74 -20 -25 3 -73 23 -110 46 -37 22 -76 40 -88 40 -12 0 -30 9 -40 20 -19 21 -31 95 -21 134 14 57 103 125 163 126 14 0 56 -30 113 -82z m-124 -259 c35 -22 68 -38 74 -34 6 4 9 3 8 -2 -2 -4 7 -18 20 -30 17 -18 22 -34 22 -77 0 -83 -11 -102 -76 -131 -51 -23 -59 -24 -74 -10 -23 21 -95 45 -159 53 l-55 7 -18 60 c-34 114 -20 151 67 185 80 31 119 26 191 -21z m-98 -264 c67 -20 152 -101 170 -161 17 -59 15 -90 -13 -169 -13 -38 -25 -77 -25 -86 0 -24 -62 -76 -99 -84 -44 -10 -79 1 -156 46 -38 22 -91 45 -117 50 -71 16 -95 63 -67 136 6 15 11 69 12 119 2 103 9 117 72 145 50 23 152 25 223 4z m-149 -458 c32 -19 76 -41 97 -49 53 -19 90 -58 104 -109 10 -37 9 -56 -5 -119 -30 -128 -77 -200 -131 -200 -12 0 -44 9 -70 20 -26 11 -63 25 -83 29 -81 20 -147 51 -174 81 -25 28 -28 39 -25 79 6 62 45 197 69 242 45 79 115 87 218 26z m-123 -458 c60 -22 126 -51 147 -65 20 -13 37 -19 37 -14 0 6 5 8 11 4 8 -5 8 -8 0 -13 -8 -5 -8 -16 0 -38 17 -49 -4 -106 -60 -164 -55 -57 -61 -58 -181 -28 -71 18 -91 27 -120 57 -19 21 -37 36 -40 35 -3 -1 -6 11 -7 25 -13 152 18 242 81 242 13 0 72 -18 132 -41z m89 -9 c3 -5 -4 -6 -15 -3 -11 3 -22 9 -25 13 -3 5 4 6 15 3 11 -3 22 -9 25 -13z m60 -20 c3 -5 2 -10 -4 -10 -5 0 -13 5 -16 10 -3 6 -2 10 4 10 5 0 13 -4 16 -10z"/> <path d="M1228 2600 c-30 -23 -42 -80 -28 -132 11 -38 93 -138 113 -137 7 0 1 7 -11 16 -13 9 -39 37 -58 61 -29 38 -34 53 -34 99 0 70 12 93 51 93 57 0 86 -25 130 -112 34 -68 40 -89 36 -122 -4 -26 -2 -35 4 -25 16 25 10 72 -17 129 -35 76 -71 120 -110 136 -43 18 -47 18 -76 -6z"/> <path d="M1157 2249 c-8 -63 -27 -87 -76 -92 l-36 -4 40 -1 c23 -1 46 3 53 10 9 9 12 8 12 -4 0 -9 11 -30 25 -45 l26 -28 -22 38 c-22 38 -22 58 -4 145 5 19 4 32 -2 32 -6 0 -13 -23 -16 -51z"/> <path d="M1058 1971 c-8 -53 -25 -72 -75 -81 -34 -7 -35 -8 -8 -9 17 0 36 3 44 8 11 7 19 1 30 -22 9 -16 27 -37 41 -45 25 -15 25 -15 -2 9 -34 31 -43 63 -28 99 6 15 10 41 8 56 -3 24 -4 22 -10 -15z"/> <path d="M932 1698 c-1 -21 4 -43 13 -52 14 -14 14 -19 -4 -53 -11 -21 -20 -33 -21 -27 0 7 -20 28 -45 48 -25 21 -43 31 -40 24 3 -7 21 -24 40 -37 61 -41 56 -99 -11 -127 -19 -8 -34 -17 -34 -19 0 -10 75 26 87 42 7 9 14 15 15 12 2 -2 16 -18 31 -35 28 -31 28 -32 12 -65 l-16 -34 26 33 c19 22 35 32 55 32 16 0 31 3 33 8 3 4 -14 5 -38 4 -39 -4 -45 -1 -69 31 -45 59 -29 117 44 155 25 13 36 20 25 17 -74 -23 -90 -15 -98 45 l-4 35 -1 -37z"/> <path d="M846 1250 c3 -19 7 -43 9 -54 5 -24 -24 -96 -39 -96 -6 0 -29 12 -51 26 -36 23 -38 23 -14 2 14 -13 34 -28 44 -33 15 -9 16 -15 6 -32 -6 -12 -10 -37 -10 -55 1 -27 3 -28 6 -8 7 41 24 90 32 90 4 0 27 -14 52 -31 l44 -31 -37 35 c-21 19 -38 39 -38 45 0 29 36 82 66 98 18 10 31 20 29 22 -2 3 -20 -5 -40 -17 -20 -11 -38 -21 -41 -21 -2 0 -4 15 -4 33 0 17 -5 39 -10 47 -7 11 -8 5 -4 -20z"/> <path d="M720 837 c0 -9 4 -17 9 -17 5 0 0 -18 -10 -40 -22 -45 -25 -46 -76 -25 -42 18 -53 19 -53 5 0 -6 3 -9 8 -8 4 1 22 -2 40 -6 42 -10 54 -33 41 -81 -6 -20 -9 -39 -6 -41 7 -7 30 84 23 94 -3 5 3 17 14 27 18 16 20 16 20 2 0 -9 6 -31 14 -49 38 -90 36 -86 30 -53 -3 17 -15 52 -26 79 l-20 49 22 30 c13 16 17 26 10 22 -8 -5 -18 -1 -27 10 -12 17 -13 17 -13 2z"/> <path d="M2708 2679 c-10 -5 -18 -15 -18 -20 0 -6 5 -7 10 -4 6 3 -4 -15 -21 -42 -38 -58 -139 -158 -156 -154 -18 3 -17 -100 1 -144 17 -40 80 -76 136 -79 35 -1 37 -2 29 -28 -4 -16 -5 -52 -2 -82 5 -45 12 -61 38 -86 28 -27 39 -32 73 -29 l39 4 -28 -26 c-25 -24 -29 -34 -29 -83 0 -87 17 -118 79 -139 28 -10 51 -21 51 -26 0 -4 -9 -16 -21 -27 -30 -27 -58 -87 -65 -137 -5 -32 2 -66 27 -142 38 -115 65 -148 135 -163 53 -11 82 -2 175 54 73 44 132 52 176 25 43 -27 66 -75 98 -204 38 -150 25 -175 -109 -225 -32 -13 -59 -21 -60 -20 -18 39 -22 66 -10 74 11 7 6 20 -21 64 l-35 55 0 -68 c0 -58 2 -67 17 -65 11 2 19 -7 24 -26 5 -17 6 -32 4 -34 -12 -13 -123 -52 -146 -52 -47 0 -91 61 -123 172 -29 100 -21 163 27 216 11 12 16 22 9 22 -17 0 -51 -50 -63 -93 -18 -68 34 -248 86 -297 28 -26 99 -42 114 -27 6 6 13 8 16 5 3 -3 -6 -13 -21 -23 -15 -9 -23 -12 -20 -6 13 20 -10 12 -32 -11 -31 -34 -44 -77 -36 -121 4 -28 2 -42 -7 -48 -20 -13 -37 -11 -41 4 -2 9 -22 1 -63 -26 l-60 -39 40 6 c22 3 54 6 72 6 25 0 31 4 27 15 -4 9 0 16 10 17 9 0 20 1 25 2 5 1 27 -22 49 -50 63 -81 132 -98 234 -59 11 4 17 -1 22 -18 3 -14 9 -32 12 -41 4 -10 1 -16 -10 -16 -11 0 -7 -14 21 -60 19 -33 36 -60 37 -60 0 0 -1 32 -2 71 -3 54 -7 69 -17 65 -14 -5 -39 49 -30 64 3 4 20 11 38 14 69 13 141 126 136 214 -3 38 0 47 14 50 10 2 17 -3 17 -11 0 -11 16 -6 60 20 33 20 59 37 58 39 -2 1 -33 0 -70 -3 -47 -4 -65 -9 -62 -18 3 -7 -1 -15 -9 -18 -11 -4 -18 7 -26 40 -15 57 -50 93 -92 93 l-31 0 31 35 c38 44 39 64 5 192 -30 115 -63 177 -105 199 -28 14 -29 17 -16 32 24 28 29 73 12 127 -8 28 -15 84 -15 125 0 54 -5 82 -16 99 -18 25 -87 60 -120 61 -20 0 -20 0 4 76 20 61 23 84 16 113 -11 41 -56 76 -122 93 l-43 11 21 22 c13 13 23 42 27 73 11 93 -57 184 -148 198 l-37 6 16 28 c14 25 14 33 -2 92 -22 81 -47 123 -88 148 -35 21 -92 26 -120 9z m126 -58 c19 -21 56 -125 56 -157 0 -15 -10 -30 -27 -41 -16 -10 -62 -48 -103 -86 -70 -63 -77 -67 -110 -61 -47 8 -87 33 -94 58 -3 12 -6 44 -6 72 0 49 2 53 46 89 25 21 61 62 81 91 20 30 46 57 62 62 30 10 72 -1 95 -27z m158 -257 c48 -25 78 -81 78 -147 0 -75 -11 -94 -63 -108 -23 -6 -68 -27 -99 -46 -33 -21 -75 -37 -100 -40 -38 -4 -48 -1 -76 25 -30 29 -32 34 -32 104 l0 74 82 75 c45 41 88 77 97 81 21 9 78 0 113 -18z m104 -289 c92 -27 114 -73 84 -180 -18 -64 -27 -75 -59 -75 -43 0 -141 -29 -172 -50 l-28 -21 -38 21 c-21 11 -43 20 -50 20 -19 0 -30 29 -37 96 -8 75 -1 85 104 153 83 55 114 61 196 36z m144 -296 c27 -11 52 -28 56 -37 4 -10 11 -57 15 -107 4 -49 11 -115 14 -146 10 -76 -1 -93 -67 -108 -30 -6 -83 -29 -118 -51 -76 -47 -118 -57 -169 -41 -54 16 -74 44 -109 156 -27 85 -30 107 -22 145 5 25 9 49 10 53 0 15 95 109 125 124 75 40 189 45 265 12z m227 -891 c44 -48 57 -172 24 -236 -10 -20 -28 -46 -40 -56 -21 -19 -176 -66 -219 -66 -28 0 -105 69 -126 114 -47 100 -4 155 174 222 133 50 159 53 187 22z m-236 -23 c-18 -8 -38 -15 -45 -14 -15 1 46 28 64 28 8 0 0 -6 -19 -14z"/> <path d="M2720 2598 c-37 -19 -51 -35 -81 -93 -45 -85 -55 -133 -34 -160 14 -19 15 -19 7 5 -12 33 2 90 38 154 39 69 60 87 108 93 33 4 42 2 56 -18 20 -30 21 -91 0 -135 -9 -18 -36 -51 -60 -74 -24 -22 -39 -40 -34 -40 13 0 78 67 101 104 25 41 26 126 2 154 -28 32 -55 34 -103 10z"/> <path d="M2866 2255 c11 -80 8 -104 -15 -136 -13 -17 -21 -33 -18 -35 7 -8 47 52 47 70 0 18 11 21 27 5 6 -6 26 -9 44 -6 l34 4 -36 1 c-45 2 -55 14 -74 88 l-15 59 6 -50z"/> <path d="M2965 1980 c3 -19 8 -52 11 -72 6 -33 3 -41 -26 -68 -18 -16 -27 -30 -21 -30 20 0 61 48 61 70 0 17 3 19 19 10 11 -5 35 -10 53 -9 30 1 29 2 -11 10 -55 11 -59 15 -77 75 -10 36 -12 40 -9 14z"/> <path d="M3074 1712 c16 -50 -28 -75 -88 -52 -43 16 -29 2 18 -19 70 -30 89 -91 47 -150 -19 -27 -29 -31 -69 -32 -47 -1 -47 -1 -12 -9 19 -5 45 -21 58 -37 16 -20 21 -22 16 -8 -4 11 -11 25 -15 31 -5 6 3 22 21 39 17 16 30 36 31 44 0 11 4 9 11 -6 11 -22 64 -53 90 -53 7 0 -6 9 -29 19 -39 18 -63 45 -63 71 0 7 24 35 53 62 l52 50 -48 -37 c-26 -21 -52 -45 -57 -54 -8 -14 -9 -13 -10 4 0 11 -7 30 -15 42 -13 18 -12 22 5 38 22 20 27 60 9 71 -7 4 -9 0 -5 -14z"/> <path d="M3312 800 c0 -14 2 -19 5 -12 2 6 2 18 0 25 -3 6 -5 1 -5 -13z"/> <path d="M3290 772 l24 -32 -21 -52 c-26 -65 -34 -100 -22 -92 5 3 9 12 9 20 0 8 9 35 21 60 17 38 23 43 35 33 8 -6 12 -19 9 -29 -3 -9 1 -34 9 -56 l15 -39 -6 55 -5 55 34 13 c19 6 43 12 54 13 12 0 14 3 6 6 -8 3 -33 0 -58 -7 -48 -14 -74 -4 -74 29 0 9 -12 25 -27 35 l-26 19 23 -31z"/> <path d="M3710 2672 c0 -15 10 -17 65 -18 57 -1 65 1 65 18 0 16 -8 18 -65 18 -55 0 -65 -3 -65 -18z"/> <path d="M2012 2630 c0 -14 2 -19 5 -12 2 6 2 18 0 25 -3 6 -5 1 -5 -13z"/> <path d="M2012 2580 c0 -14 2 -19 5 -12 2 6 2 18 0 25 -3 6 -5 1 -5 -13z"/> <path d="M3932 2505 c1 -46 1 -47 7 -15 6 32 8 33 15 13 9 -27 21 -29 32 -5 6 14 8 12 14 -13 7 -26 8 -23 9 20 l0 50 -17 -27 c-16 -27 -32 -37 -32 -20 0 5 -7 17 -15 28 -13 17 -14 15 -13 -31z"/> <path d="M4135 2540 c3 -5 8 -10 11 -10 2 0 4 5 4 10 0 6 -5 10 -11 10 -5 0 -7 -4 -4 -10z"/> <path d="M4223 2505 c0 -27 2 -38 4 -22 2 15 2 37 0 50 -2 12 -4 0 -4 -28z"/> <path d="M2012 2520 c0 -14 2 -19 5 -12 2 6 2 18 0 25 -3 6 -5 1 -5 -13z"/> <path d="M4034 2516 c-13 -35 0 -51 43 -53 42 -1 69 22 38 33 -8 4 -15 10 -15 16 0 5 5 6 10 3 6 -3 10 -1 10 4 0 17 -20 13 -27 -6 -4 -9 -1 -19 5 -21 24 -8 11 -17 -20 -15 -45 2 -46 3 -19 14 19 8 21 12 11 24 -16 19 -29 19 -36 1z m31 -6 c3 -5 -1 -10 -10 -10 -9 0 -13 5 -10 10 3 6 8 10 10 10 2 0 7 -4 10 -10z"/> <path d="M4164 2518 c-5 -8 -2 -9 9 -5 9 3 19 2 22 -3 4 -6 -1 -10 -9 -10 -19 0 -31 -19 -19 -31 14 -14 43 0 43 20 0 17 -18 41 -31 41 -4 0 -11 -5 -15 -12z m31 -38 c-3 -5 -10 -10 -16 -10 -5 0 -9 5 -9 10 0 6 7 10 16 10 8 0 12 -4 9 -10z"/> <path d="M3710 2505 c0 -12 14 -15 65 -15 51 0 65 3 65 15 0 12 -14 15 -65 15 -51 0 -65 -3 -65 -15z"/> <path d="M4142 2490 c0 -19 2 -27 5 -17 2 9 2 25 0 35 -3 9 -5 1 -5 -18z"/> <path d="M2012 2460 c0 -14 2 -19 5 -12 2 6 2 18 0 25 -3 6 -5 1 -5 -13z"/> <path d="M2012 2410 c0 -14 2 -19 5 -12 2 6 2 18 0 25 -3 6 -5 1 -5 -13z"/> <path d="M3930 2345 c0 -40 2 -45 23 -45 29 0 47 18 47 45 0 27 -18 45 -47 45 -21 0 -23 -5 -23 -45z m57 19 c8 -20 -8 -48 -31 -52 -12 -3 -16 4 -16 32 0 30 4 36 20 36 11 0 23 -7 27 -16z"/> <path d="M4010 2379 c0 -5 5 -7 10 -4 6 3 10 8 10 11 0 2 -4 4 -10 4 -5 0 -10 -5 -10 -11z"/> <path d="M4180 2345 c0 -25 5 -45 10 -45 6 0 10 20 10 45 0 25 -4 45 -10 45 -5 0 -10 -20 -10 -45z"/> <path d="M4092 2344 c2 -20 9 -39 16 -40 7 -1 8 0 2 3 -12 6 -13 40 -1 45 5 2 2 9 -6 17 -12 11 -14 8 -11 -25z"/> <path d="M2012 2350 c0 -14 2 -19 5 -12 2 6 2 18 0 25 -3 6 -5 1 -5 -13z"/> <path d="M4047 2363 c-13 -12 -7 -33 9 -33 8 0 12 -5 9 -10 -4 -6 -11 -8 -16 -5 -5 4 -9 1 -9 -4 0 -15 27 -14 36 1 4 6 0 16 -9 23 -18 13 -24 30 -7 20 6 -3 10 -1 10 4 0 12 -13 14 -23 4z"/> <path d="M4135 2361 c-3 -6 2 -11 12 -11 17 -1 17 -1 1 -11 -10 -5 -18 -17 -18 -25 0 -9 7 -14 18 -12 11 2 17 13 17 32 0 30 -18 46 -30 27z m25 -35 c0 -3 -4 -8 -10 -11 -5 -3 -10 -1 -10 4 0 6 5 11 10 11 6 0 10 -2 10 -4z"/> <path d="M3710 2340 c0 -18 7 -20 65 -20 58 0 65 2 65 20 0 18 -7 20 -65 20 -58 0 -65 -2 -65 -20z"/> <path d="M4010 2328 c0 -17 3 -28 8 -24 10 10 10 56 0 56 -4 0 -8 -14 -8 -32z"/> <path d="M2012 2290 c0 -14 2 -19 5 -12 2 6 2 18 0 25 -3 6 -5 1 -5 -13z"/> <path d="M2012 2240 c0 -14 2 -19 5 -12 2 6 2 18 0 25 -3 6 -5 1 -5 -13z"/> <path d="M2012 2180 c0 -14 2 -19 5 -12 2 6 2 18 0 25 -3 6 -5 1 -5 -13z"/> <path d="M2012 2120 c0 -14 2 -19 5 -12 2 6 2 18 0 25 -3 6 -5 1 -5 -13z"/> <path d="M3116 2127 c3 -10 9 -15 12 -12 3 3 0 11 -7 18 -10 9 -11 8 -5 -6z"/> <path d="M2012 2070 c0 -14 2 -19 5 -12 2 6 2 18 0 25 -3 6 -5 1 -5 -13z"/> <path d="M2012 2010 c0 -14 2 -19 5 -12 2 6 2 18 0 25 -3 6 -5 1 -5 -13z"/> <path d="M2011 1954 c0 -11 3 -14 6 -6 3 7 2 16 -1 19 -3 4 -6 -2 -5 -13z"/> <path d="M2012 1900 c0 -14 2 -19 5 -12 2 6 2 18 0 25 -3 6 -5 1 -5 -13z"/> <path d="M2012 1840 c0 -14 2 -19 5 -12 2 6 2 18 0 25 -3 6 -5 1 -5 -13z"/> <path d="M2011 1784 c0 -11 3 -14 6 -6 3 7 2 16 -1 19 -3 4 -6 -2 -5 -13z"/> <path d="M310 1740 c0 -36 3 -40 24 -40 31 0 35 7 29 48 -4 26 -10 32 -29 32 -21 0 -24 -5 -24 -40z m40 20 c0 -5 -4 -10 -10 -10 -5 0 -10 -4 -10 -10 0 -5 7 -10 16 -10 8 0 12 -4 9 -10 -14 -22 -35 -10 -35 20 0 20 5 30 15 30 8 0 15 -4 15 -10z"/> <path d="M603 1740 c0 -25 2 -35 4 -22 2 12 2 32 0 45 -2 12 -4 2 -4 -23z"/> <path d="M3410 1740 c0 -36 3 -40 24 -40 28 0 34 11 28 52 -3 22 -10 28 -28 28 -21 0 -24 -5 -24 -40z m40 21 c0 -5 -6 -12 -12 -15 -10 -5 -10 -7 0 -12 17 -8 15 -24 -3 -24 -10 0 -15 10 -15 30 0 20 5 30 15 30 8 0 15 -4 15 -9z"/> <path d="M3703 1740 c0 -25 2 -35 4 -22 2 12 2 32 0 45 -2 12 -4 2 -4 -23z"/> <path d="M381 1733 c-1 -29 2 -33 24 -33 22 0 25 4 24 33 -2 30 -2 30 -6 5 -2 -16 -10 -28 -18 -28 -8 0 -16 12 -18 28 -4 25 -4 25 -6 -5z"/> <path d="M447 1753 c-4 -3 -7 -16 -7 -29 0 -23 25 -40 35 -24 4 6 -1 10 -9 10 -22 0 -20 37 2 43 14 4 14 5 1 6 -9 0 -19 -2 -22 -6z"/> <path d="M497 1753 c-4 -3 -7 -16 -7 -29 0 -23 25 -40 35 -24 4 6 -1 10 -9 10 -22 0 -20 37 2 43 14 4 14 5 1 6 -9 0 -19 -2 -22 -6z"/> <path d="M545 1750 c-3 -6 1 -7 9 -4 9 3 16 2 16 -4 0 -5 -7 -12 -15 -16 -24 -9 -17 -26 10 -26 25 0 31 13 19 44 -7 18 -30 21 -39 6z"/> <path d="M3484 1730 c1 -29 4 -34 21 -32 11 2 21 8 23 13 2 5 10 2 19 -6 8 -8 20 -12 26 -8 8 5 6 9 -5 11 -10 2 -18 12 -18 24 0 14 5 18 15 14 8 -3 15 -1 15 4 0 14 -24 12 -38 -2 -9 -9 -12 -9 -12 0 0 7 -4 12 -10 12 -5 0 -10 -11 -10 -25 0 -34 -18 -32 -23 3 -4 20 -4 18 -3 -8z"/> <path d="M3590 1741 c-12 -23 14 -56 33 -44 8 5 6 9 -5 11 -10 2 -18 12 -18 24 0 14 5 18 15 14 8 -3 15 -1 15 4 0 18 -29 11 -40 -9z"/> <path d="M3645 1750 c-3 -6 1 -7 9 -4 9 3 16 1 16 -5 0 -6 -7 -11 -15 -11 -15 0 -21 -21 -9 -33 14 -13 34 7 34 34 0 29 -22 41 -35 19z"/> <path d="M2012 1730 c0 -14 2 -19 5 -12 2 6 2 18 0 25 -3 6 -5 1 -5 -13z"/> <path d="M2012 1670 c0 -14 2 -19 5 -12 2 6 2 18 0 25 -3 6 -5 1 -5 -13z"/> <path d="M461 1527 c-78 -248 -151 -575 -176 -798 l-7 -56 32 -7 c18 -3 42 -6 54 -5 20 0 21 1 1 9 -11 5 -32 9 -48 9 -23 1 -27 5 -23 24 3 12 10 58 16 102 35 255 129 636 207 843 3 6 1 12 -4 12 -5 0 -29 -60 -52 -133z"/> <path d="M3499 1655 c-3 -3 12 -56 33 -117 79 -229 156 -522 188 -718 6 -36 13 -79 15 -97 5 -30 4 -31 -37 -38 -63 -11 -84 -28 -24 -20 68 9 76 14 76 44 0 40 -37 238 -70 376 -51 213 -169 583 -181 570z"/> <path d="M2011 1614 c0 -11 3 -14 6 -6 3 7 2 16 -1 19 -3 4 -6 -2 -5 -13z"/> <path d="M2012 1560 c0 -14 2 -19 5 -12 2 6 2 18 0 25 -3 6 -5 1 -5 -13z"/> <path d="M2012 1500 c0 -14 2 -19 5 -12 2 6 2 18 0 25 -3 6 -5 1 -5 -13z"/> <path d="M3381 1465 c1 -19 18 -51 18 -35 0 8 -4 22 -9 30 -5 8 -9 11 -9 5z"/> <path d="M2011 1444 c0 -11 3 -14 6 -6 3 7 2 16 -1 19 -3 4 -6 -2 -5 -13z"/> <path d="M2012 1390 c0 -14 2 -19 5 -12 2 6 2 18 0 25 -3 6 -5 1 -5 -13z"/> <path d="M2012 1330 c0 -14 2 -19 5 -12 2 6 2 18 0 25 -3 6 -5 1 -5 -13z"/> <path d="M3451 1285 c0 -11 4 -27 9 -35 9 -13 10 -13 9 0 0 8 -4 24 -9 35 -9 20 -9 20 -9 0z"/> <path d="M2011 1274 c0 -11 3 -14 6 -6 3 7 2 16 -1 19 -3 4 -6 -2 -5 -13z"/> <path d="M3210 1261 c0 -55 -8 -62 -43 -40 -18 10 -36 19 -42 19 -5 0 4 -9 22 -20 18 -10 40 -32 49 -47 9 -15 25 -40 35 -54 10 -15 25 -48 33 -75 13 -40 15 -43 12 -14 -3 19 -8 44 -11 56 -5 17 0 24 25 34 17 7 36 22 42 34 11 21 10 21 -13 -1 -13 -12 -37 -26 -52 -32 -26 -10 -29 -9 -42 22 -9 23 -12 52 -8 90 3 32 3 57 -1 57 -3 0 -6 -13 -6 -29z"/> <path d="M2012 1220 c0 -14 2 -19 5 -12 2 6 2 18 0 25 -3 6 -5 1 -5 -13z"/> <path d="M542 1187 c-7 -19 -12 -40 -12 -48 1 -8 8 6 16 29 9 24 14 46 12 48 -2 2 -10 -11 -16 -29z"/> <path d="M2012 1160 c0 -14 2 -19 5 -12 2 6 2 18 0 25 -3 6 -5 1 -5 -13z"/> <path d="M2012 1110 c0 -14 2 -19 5 -12 2 6 2 18 0 25 -3 6 -5 1 -5 -13z"/> <path d="M522 1095 c0 -16 2 -22 5 -12 2 9 2 23 0 30 -3 6 -5 -1 -5 -18z"/> <path d="M3512 1100 c0 -14 2 -19 5 -12 2 6 2 18 0 25 -3 6 -5 1 -5 -13z"/> <path d="M2012 1050 c0 -14 2 -19 5 -12 2 6 2 18 0 25 -3 6 -5 1 -5 -13z"/> <path d="M511 1034 c0 -11 3 -14 6 -6 3 7 2 16 -1 19 -3 4 -6 -2 -5 -13z"/> <path d="M3522 1030 c0 -14 2 -19 5 -12 2 6 2 18 0 25 -3 6 -5 1 -5 -13z"/> <path d="M2012 990 c0 -14 2 -19 5 -12 2 6 2 18 0 25 -3 6 -5 1 -5 -13z"/> <path d="M500 980 c0 -5 5 -10 11 -10 5 0 7 5 4 10 -3 6 -8 10 -11 10 -2 0 -4 -4 -4 -10z"/> <path d="M3531 975 c1 -19 18 -51 18 -35 0 8 -4 22 -9 30 -5 8 -9 11 -9 5z"/> <path d="M2012 940 c0 -14 2 -19 5 -12 2 6 2 18 0 25 -3 6 -5 1 -5 -13z"/> <path d="M3546 907 c3 -10 9 -15 12 -12 3 3 0 11 -7 18 -10 9 -11 8 -5 -6z"/> <path d="M481 894 c0 -11 3 -14 6 -6 3 7 2 16 -1 19 -3 4 -6 -2 -5 -13z"/> <path d="M2012 880 c0 -14 2 -19 5 -12 2 6 2 18 0 25 -3 6 -5 1 -5 -13z"/> <path d="M2012 820 c0 -14 2 -19 5 -12 2 6 2 18 0 25 -3 6 -5 1 -5 -13z"/> <path d="M2012 770 c0 -14 2 -19 5 -12 2 6 2 18 0 25 -3 6 -5 1 -5 -13z"/> <path d="M451 764 c0 -11 3 -14 6 -6 3 7 2 16 -1 19 -3 4 -6 -2 -5 -13z"/> <path d="M2012 710 c0 -14 2 -19 5 -12 2 6 2 18 0 25 -3 6 -5 1 -5 -13z"/> <path d="M3587 710 c3 -11 7 -20 9 -20 2 0 4 9 4 20 0 11 -4 20 -9 20 -5 0 -7 -9 -4 -20z"/> <path d="M443 670 c0 -30 2 -43 4 -27 2 15 2 39 0 55 -2 15 -4 2 -4 -28z"/> <path d="M3593 640 c0 -25 2 -35 4 -22 2 12 2 32 0 45 -2 12 -4 2 -4 -23z"/> <path d="M2011 654 c0 -11 3 -14 6 -6 3 7 2 16 -1 19 -3 4 -6 -2 -5 -13z"/> <path d="M2012 600 c0 -14 2 -19 5 -12 2 6 2 18 0 25 -3 6 -5 1 -5 -13z"/> <path d="M3575 559 c-4 -6 -5 -12 -2 -15 2 -3 7 2 10 11 7 17 1 20 -8 4z"/> <path d="M2012 540 c0 -14 2 -19 5 -12 2 6 2 18 0 25 -3 6 -5 1 -5 -13z"/> <path d="M3546 501 c-9 -16 -37 -48 -63 -71 -26 -24 -39 -38 -27 -32 29 15 83 72 100 105 8 15 12 27 10 27 -3 0 -12 -13 -20 -29z"/> <path d="M488 495 c16 -30 41 -61 41 -50 0 6 -11 24 -25 40 -14 17 -21 21 -16 10z"/> <path d="M2011 484 c0 -11 3 -14 6 -6 3 7 2 16 -1 19 -3 4 -6 -2 -5 -13z"/> <path d="M2012 430 c0 -14 2 -19 5 -12 2 6 2 18 0 25 -3 6 -5 1 -5 -13z"/> <path d="M550 427 c13 -18 82 -57 97 -57 4 1 -10 10 -32 22 -22 11 -49 28 -60 37 -19 15 -19 15 -5 -2z"/> <path d="M2012 370 c0 -14 2 -19 5 -12 2 6 2 18 0 25 -3 6 -5 1 -5 -13z"/> <path d="M678 363 c6 -2 18 -2 25 0 6 3 1 5 -13 5 -14 0 -19 -2 -12 -5z"/> <path d="M778 363 c6 -2 18 -2 25 0 6 3 1 5 -13 5 -14 0 -19 -2 -12 -5z"/> <path d="M888 363 c7 -3 16 -2 19 1 4 3 -2 6 -13 5 -11 0 -14 -3 -6 -6z"/> <path d="M943 363 c9 -2 25 -2 35 0 9 3 1 5 -18 5 -19 0 -27 -2 -17 -5z"/> <path d="M1018 363 c6 -2 18 -2 25 0 6 3 1 5 -13 5 -14 0 -19 -2 -12 -5z"/> <path d="M1068 363 c7 -3 16 -2 19 1 4 3 -2 6 -13 5 -11 0 -14 -3 -6 -6z"/> <path d="M1148 363 c28 -2 76 -2 105 0 28 2 5 3 -53 3 -58 0 -81 -1 -52 -3z"/> <path d="M1393 363 c48 -2 126 -2 175 0 48 1 8 3 -88 3 -96 0 -136 -2 -87 -3z"/> <path d="M1688 363 c17 -2 47 -2 65 0 17 2 3 4 -33 4 -36 0 -50 -2 -32 -4z"/> <path d="M1818 363 c7 -3 16 -2 19 1 4 3 -2 6 -13 5 -11 0 -14 -3 -6 -6z"/> <path d="M2063 363 c9 -2 23 -2 30 0 6 3 -1 5 -18 5 -16 0 -22 -2 -12 -5z"/> <path d="M2168 363 c7 -3 16 -2 19 1 4 3 -2 6 -13 5 -11 0 -14 -3 -6 -6z"/> <path d="M2318 363 c6 -2 18 -2 25 0 6 3 1 5 -13 5 -14 0 -19 -2 -12 -5z"/> <path d="M2373 363 c9 -2 25 -2 35 0 9 3 1 5 -18 5 -19 0 -27 -2 -17 -5z"/> <path d="M2458 363 c7 -3 16 -2 19 1 4 3 -2 6 -13 5 -11 0 -14 -3 -6 -6z"/> <path d="M2518 363 c7 -3 16 -2 19 1 4 3 -2 6 -13 5 -11 0 -14 -3 -6 -6z"/> <path d="M2568 363 c7 -3 16 -2 19 1 4 3 -2 6 -13 5 -11 0 -14 -3 -6 -6z"/> <path d="M2653 363 c9 -2 23 -2 30 0 6 3 -1 5 -18 5 -16 0 -22 -2 -12 -5z"/> <path d="M2738 363 c7 -3 16 -2 19 1 4 3 -2 6 -13 5 -11 0 -14 -3 -6 -6z"/> <path d="M2798 363 c7 -3 16 -2 19 1 4 3 -2 6 -13 5 -11 0 -14 -3 -6 -6z"/> <path d="M2903 363 c9 -2 25 -2 35 0 9 3 1 5 -18 5 -19 0 -27 -2 -17 -5z"/> <path d="M2998 363 c7 -3 16 -2 19 1 4 3 -2 6 -13 5 -11 0 -14 -3 -6 -6z"/> <path d="M3038 363 c6 -2 18 -2 25 0 6 3 1 5 -13 5 -14 0 -19 -2 -12 -5z"/> <path d="M3118 363 c6 -2 18 -2 25 0 6 3 1 5 -13 5 -14 0 -19 -2 -12 -5z"/> </g> </svg> 