<?xml version="1.0" standalone="no"?>
<!DOCTYPE svg PUBLIC "-//W3C//DTD SVG 20010904//EN"
 "http://www.w3.org/TR/2001/REC-SVG-20010904/DTD/svg10.dtd">
<svg version="1.0" xmlns="http://www.w3.org/2000/svg"
 width="450.000000pt" height="488.000000pt" viewBox="0 0 450.000000 488.000000"
 preserveAspectRatio="xMidYMid meet">
<metadata>
Created by potrace 1.10, written by Peter Selinger 2001-2011
</metadata>
<g transform="translate(0.000000,488.000000) scale(0.100000,-0.100000)"
fill="#000000" stroke="none">
<path d="M2055 4789 c-472 -63 -755 -370 -905 -981 -46 -188 -63 -325 -63
-508 0 -181 16 -298 58 -445 47 -161 116 -259 220 -313 43 -23 62 -26 145 -27
81 0 102 3 140 24 78 41 115 77 190 186 108 157 167 203 289 225 71 13 129 7
218 -21 89 -29 171 -86 286 -199 55 -54 116 -107 136 -117 19 -10 54 -32 77
-49 116 -86 274 -58 377 68 111 136 174 412 164 723 -6 184 -22 297 -67 475
-143 565 -392 848 -835 946 -84 19 -332 27 -430 13z m373 -29 c46 -6 96 -16
110 -22 15 -6 31 -10 35 -9 5 1 24 -5 43 -14 70 -31 100 -43 122 -50 12 -3 22
-11 22 -16 0 -5 5 -9 11 -9 18 0 122 -77 179 -132 92 -90 124 -135 196 -276
30 -59 54 -114 54 -122 0 -9 4 -20 9 -26 9 -9 59 -147 66 -181 1 -10 10 -45
19 -78 127 -489 69 -1042 -127 -1208 -73 -62 -93 -70 -172 -71 -74 0 -72 -1
-222 98 -17 12 -76 64 -130 116 -162 156 -263 210 -409 218 -133 7 -171 -2
-250 -55 -38 -25 -70 -49 -72 -54 -2 -4 -16 -23 -32 -41 -17 -18 -30 -36 -30
-40 0 -4 -6 -13 -13 -20 -7 -7 -24 -29 -37 -48 -13 -19 -39 -51 -57 -70 -18
-19 -33 -37 -33 -41 0 -4 -7 -10 -16 -13 -10 -4 -13 -2 -8 7 4 6 -6 0 -22 -15
-34 -32 -91 -57 -119 -53 -11 2 -48 6 -82 9 -100 9 -187 76 -244 188 -31 62
-70 200 -89 317 -13 80 -17 409 -6 481 24 155 68 355 86 395 4 11 11 33 15 50
4 16 25 77 48 135 106 273 305 498 512 580 33 13 65 27 70 31 6 3 20 5 32 4
12 -1 20 2 18 6 -6 8 156 38 230 42 84 4 206 -1 293 -13z"/>
<path d="M2006 4730 c-36 -11 -66 -38 -66 -61 0 -15 -4 -16 -30 -6 -54 21
-200 -37 -244 -95 -19 -27 -19 -29 -3 -63 l16 -34 -25 9 c-47 18 -103 12 -129
-15 -39 -38 -31 -121 17 -172 l20 -21 -39 5 c-104 13 -172 -133 -101 -222 l19
-25 -39 0 c-59 0 -92 -30 -92 -85 0 -24 -5 -47 -10 -50 -6 -3 -17 -19 -25 -35
-19 -36 -8 -70 35 -110 l30 -28 -29 -5 c-17 -4 -40 -21 -56 -42 -49 -63 -44
-159 12 -226 14 -16 24 -31 22 -32 -2 -2 -16 -8 -31 -15 -47 -20 -62 -56 -66
-156 -3 -67 0 -101 11 -128 16 -39 67 -78 102 -78 17 0 16 -3 -8 -19 -56 -37
-72 -81 -52 -149 7 -26 16 -66 20 -90 13 -84 93 -141 196 -142 63 0 114 26
136 70 16 31 17 176 1 221 -17 51 -47 90 -82 104 -26 11 -28 15 -13 20 30 12
49 65 55 150 5 95 -7 145 -45 175 -14 11 -24 22 -22 23 2 2 16 11 31 20 47 29
62 75 59 174 -1 23 -11 43 -36 68 -36 35 -36 35 -10 35 36 0 67 34 59 65 -4
16 1 36 16 60 30 48 21 93 -27 140 l-36 35 30 0 c46 0 81 34 99 96 15 52 15
57 -3 93 l-19 39 30 -9 c40 -12 72 -2 96 28 25 32 25 68 2 114 l-18 36 40 -28
c61 -42 88 -45 122 -16 28 24 29 30 34 128 l5 103 23 -52 c13 -29 37 -66 54
-82 56 -56 103 -33 157 78 19 39 38 69 41 67 4 -3 10 -23 14 -46 9 -57 42
-118 71 -131 37 -17 79 6 140 78 l53 63 4 -94 c3 -83 6 -96 27 -119 32 -34 56
-33 114 4 26 16 47 28 47 26 0 -2 -7 -21 -16 -41 -33 -81 8 -144 87 -131 l40
6 -16 -29 c-19 -38 -19 -72 0 -118 22 -52 42 -72 82 -79 l33 -6 -35 -39 c-39
-43 -47 -99 -20 -135 8 -10 15 -36 15 -56 0 -40 27 -68 65 -68 18 0 18 -2 -7
-23 -36 -31 -48 -58 -48 -114 0 -59 25 -111 66 -139 l32 -21 -32 -25 c-30 -24
-31 -28 -35 -117 -4 -114 4 -157 34 -187 l23 -23 -34 -21 c-49 -28 -77 -94
-81 -195 -5 -89 11 -133 58 -168 34 -25 102 -32 159 -17 53 14 116 73 125 116
3 16 10 49 17 74 25 101 24 117 -19 159 l-38 39 40 18 c63 30 80 70 78 180 -2
112 -18 150 -73 172 l-39 15 23 18 c35 27 56 80 56 139 0 65 -26 111 -76 135
l-37 17 26 22 c52 44 59 84 22 132 -17 22 -25 45 -25 73 0 50 -26 71 -88 71
-40 0 -42 1 -27 17 76 75 24 233 -76 233 l-38 0 24 43 c49 85 18 172 -61 171
-22 0 -51 -3 -66 -7 l-27 -7 17 29 c16 29 16 31 -4 58 -32 45 -128 87 -201 87
-38 1 -63 5 -63 12 0 17 -42 50 -79 63 -19 6 -65 14 -103 18 -61 5 -72 3 -99
-16 -16 -12 -29 -17 -29 -11 0 32 -158 52 -234 30z m205 -20 c32 -18 24 -75
-21 -165 -23 -44 -48 -86 -57 -92 -44 -34 -89 0 -143 108 -44 86 -43 130 4
149 30 12 194 12 217 0z m274 -26 c69 -33 55 -82 -58 -204 -40 -44 -52 -51
-79 -48 -39 4 -61 43 -85 151 -15 71 -15 77 1 103 18 26 20 26 100 22 53 -3
95 -11 121 -24z m-553 -56 c9 -15 12 -58 11 -126 -1 -113 -15 -152 -56 -152
-55 0 -217 137 -217 183 0 31 41 66 115 96 70 28 131 28 147 -1z m785 -34 c69
-30 93 -50 93 -78 0 -42 -163 -176 -214 -176 -38 0 -54 34 -56 115 -3 121 -1
134 21 156 26 26 71 21 156 -17z m-1013 -158 c69 -52 98 -153 56 -191 -19 -17
-27 -18 -77 -7 -77 16 -130 53 -155 108 -16 38 -17 50 -8 79 14 42 21 45 92
42 43 -2 64 -9 92 -31z m1233 9 c69 -48 12 -172 -96 -210 -90 -32 -141 -13
-141 51 0 110 157 215 237 159z m-1341 -204 c74 -34 91 -87 55 -167 -25 -55
-62 -71 -132 -54 -71 17 -100 45 -106 103 -6 53 9 101 41 122 28 20 93 18 142
-4z m1415 -8 c17 -10 35 -34 45 -60 14 -36 15 -47 3 -84 -18 -55 -52 -79 -122
-86 -74 -8 -101 9 -121 78 -13 44 -14 55 -2 84 14 33 51 59 106 76 40 12 60
10 91 -8z m-1490 -244 c80 -40 111 -113 70 -165 -14 -18 -18 -34 -14 -59 5
-31 3 -36 -23 -45 -29 -12 -81 -8 -166 11 -34 8 -56 21 -78 45 -36 42 -38 63
-6 101 16 19 26 45 28 74 3 40 6 45 38 56 42 15 101 8 151 -18z m1599 -2 c21
-10 25 -20 25 -54 1 -28 9 -53 23 -72 45 -61 14 -118 -79 -145 -61 -19 -170
-21 -186 -5 -7 7 -9 24 -6 40 4 19 -1 37 -16 57 -33 47 -27 79 22 127 62 60
157 82 217 52z m-1624 -303 c66 -32 91 -108 61 -193 -19 -55 -53 -73 -135 -72
-39 0 -87 7 -106 15 -91 38 -103 213 -18 261 35 20 146 14 198 -11z m1657 2
c79 -33 107 -114 69 -199 -30 -68 -59 -82 -164 -82 -82 0 -89 2 -115 27 -23
23 -28 38 -31 94 -3 43 0 74 9 90 19 36 70 63 136 73 32 5 59 9 61 10 1 0 17
-5 35 -13z m-1673 -305 c48 -22 60 -52 60 -153 0 -148 -18 -167 -161 -171
-107 -2 -137 10 -160 66 -15 36 -15 180 0 220 24 62 166 83 261 38z m1720 -7
c51 -21 59 -36 66 -131 13 -162 -21 -203 -168 -203 -138 0 -156 16 -165 144
-6 86 5 144 33 167 21 17 101 38 151 38 24 1 61 -6 83 -15z m-1682 -358 c50
-26 76 -95 77 -198 0 -103 -17 -135 -85 -157 -87 -28 -209 29 -224 105 -4 16
-11 49 -18 74 -23 92 -22 105 9 139 15 18 46 38 68 47 47 17 129 13 173 -10z
m1628 -12 c71 -34 89 -88 59 -174 -8 -23 -15 -55 -15 -70 0 -36 -32 -76 -83
-101 -32 -17 -54 -20 -105 -17 -58 4 -68 8 -93 36 -27 30 -29 38 -29 117 0
158 52 224 178 225 30 0 69 -7 88 -16z"/>
<path d="M1427 3916 c10 -13 19 -23 21 -21 7 6 -19 45 -29 45 -5 0 -2 -11 8
-24z"/>
<path d="M1310 3335 c0 -3 7 -14 16 -23 15 -14 16 -14 13 3 -4 17 -29 35 -29
20z"/>
<path d="M1394 3315 c-24 -18 -7 -19 26 0 16 9 19 14 9 15 -8 0 -24 -7 -35
-15z"/>
<path d="M3050 3303 c8 -3 26 -15 40 -27 l25 -21 -24 28 c-14 15 -32 27 -40
26 -14 0 -14 -1 -1 -6z"/>
<path d="M3020 3130 c-11 -8 -7 -9 15 -4 37 8 45 14 19 14 -10 0 -26 -5 -34
-10z"/>
<path d="M3122 2900 c-18 -11 -32 -22 -32 -25 0 -5 33 11 69 33 2 1 2 4 0 7
-3 2 -19 -5 -37 -15z"/>
<path d="M1490 2371 c-197 -28 -322 -241 -361 -618 -35 -343 58 -822 218
-1123 170 -318 406 -489 736 -530 123 -16 377 -8 467 15 287 70 500 234 642
495 88 161 168 411 210 660 29 167 31 448 4 595 -36 199 -87 324 -164 408 -90
96 -210 123 -318 73 -28 -13 -54 -29 -58 -34 -3 -6 -26 -20 -50 -32 -24 -11
-84 -61 -132 -111 -99 -100 -203 -175 -291 -210 -46 -18 -78 -23 -158 -23 -87
-1 -107 2 -155 25 -79 37 -108 65 -190 184 -83 120 -131 167 -205 201 -61 28
-119 35 -195 25z m139 -30 c18 -6 49 -23 70 -38 20 -15 39 -28 42 -28 14 0 81
-79 125 -147 67 -104 150 -179 222 -201 95 -28 162 -31 246 -13 66 15 97 28
191 80 28 16 70 52 144 124 35 34 68 62 72 62 4 0 9 7 13 15 3 8 12 15 20 15
7 0 16 6 19 14 6 16 94 75 148 100 127 59 280 -18 355 -179 95 -204 128 -542
83 -835 -30 -194 -65 -347 -99 -425 -4 -11 -18 -47 -31 -80 -33 -87 -96 -222
-108 -229 -5 -4 -19 -26 -31 -49 -30 -59 -202 -237 -230 -237 -5 0 -10 -4 -12
-8 -3 -8 -94 -63 -103 -62 -3 0 -19 -7 -35 -15 -61 -31 -207 -73 -301 -85
-155 -20 -410 0 -524 42 -16 6 -75 32 -130 59 -79 38 -116 64 -177 123 -43 41
-78 77 -78 80 0 3 -13 19 -30 36 -16 17 -30 34 -30 38 0 5 -8 17 -17 28 -25
28 -36 47 -78 134 -54 110 -72 151 -75 175 -1 3 -8 21 -16 41 -34 80 -72 226
-86 329 -5 39 -15 79 -21 90 -15 27 -20 434 -6 505 6 30 13 71 16 90 17 124
89 305 140 356 39 39 89 74 106 74 10 0 17 4 17 9 0 18 139 26 189 12z"/>
<path d="M2995 2259 c-17 -4 -44 -22 -60 -39 -29 -31 -30 -33 -30 -138 0 -95
3 -112 24 -149 15 -27 39 -50 63 -62 35 -17 37 -20 19 -26 -32 -10 -48 -52
-56 -143 -8 -92 10 -163 46 -182 25 -14 24 -23 -3 -35 -41 -19 -62 -61 -66
-134 -4 -67 -3 -69 33 -110 l37 -41 -29 0 c-37 0 -53 -16 -53 -55 0 -16 -10
-48 -22 -71 -26 -49 -20 -79 23 -129 28 -31 29 -35 12 -40 -72 -23 -106 -71
-100 -145 2 -25 7 -54 12 -64 7 -17 5 -18 -20 -14 -36 7 -83 -9 -95 -32 -15
-27 -12 -77 5 -110 19 -36 16 -37 -31 -5 -49 34 -96 33 -123 -1 -18 -23 -21
-41 -21 -121 l0 -95 -39 49 c-44 56 -92 99 -121 108 -47 15 -87 -38 -112 -146
l-12 -50 -40 77 c-51 96 -82 122 -125 105 -28 -12 -62 -53 -95 -116 l-15 -30
-1 60 c-1 84 -15 147 -36 162 -31 22 -78 15 -125 -19 -24 -17 -39 -25 -33 -17
7 8 17 32 24 55 10 34 10 46 -4 72 -18 35 -49 47 -102 39 -33 -6 -34 -5 -19
16 47 67 -16 207 -94 207 l-25 0 30 28 c17 16 37 45 43 65 11 33 10 42 -8 73
-12 19 -21 50 -21 69 0 37 -28 65 -64 65 -19 0 -19 1 2 16 75 53 68 206 -13
259 l-31 19 29 26 c37 33 47 81 37 192 -6 81 -10 94 -33 114 l-26 22 34 21
c19 11 44 39 57 63 20 37 23 58 23 146 l0 103 -37 34 c-20 19 -53 37 -72 41
-95 17 -200 -35 -223 -111 -53 -176 -53 -197 2 -252 28 -28 31 -35 17 -39 -81
-24 -105 -65 -103 -184 1 -116 17 -156 71 -177 38 -15 39 -17 20 -30 -33 -24
-60 -87 -60 -144 0 -66 27 -112 81 -136 37 -16 38 -18 19 -28 -26 -14 -60 -64
-60 -89 0 -10 11 -31 25 -48 18 -22 25 -41 25 -73 0 -54 25 -75 87 -75 l42 0
-24 -36 c-29 -43 -33 -100 -9 -149 22 -48 57 -68 109 -63 43 3 44 3 26 -17
-30 -33 -41 -61 -41 -108 0 -33 6 -49 24 -66 22 -20 33 -23 85 -19 54 4 59 3
50 -13 -15 -30 -10 -64 14 -87 62 -58 215 -102 251 -73 12 10 15 7 18 -16 5
-47 54 -65 169 -61 76 2 101 7 117 21 17 16 21 16 32 2 9 -11 32 -15 80 -15
110 0 200 37 200 81 0 16 4 17 27 8 47 -18 175 23 231 74 24 22 28 56 12 88
-10 17 -8 18 15 9 76 -29 155 12 155 80 0 32 -21 82 -48 113 -16 17 -15 18 9
12 15 -4 42 0 63 9 69 29 96 141 50 210 -14 23 -14 24 23 29 60 10 83 32 83
77 0 25 9 52 25 76 14 20 25 42 25 49 0 21 -44 79 -70 92 -22 11 -23 13 -5 13
33 0 81 35 98 73 31 64 15 156 -34 203 l-28 27 42 21 c31 15 45 30 54 56 17
51 16 195 -2 230 -19 38 -62 70 -92 70 -24 0 -24 0 7 26 17 15 38 40 46 56 14
28 14 37 -1 102 -38 156 -57 184 -152 212 -52 16 -74 16 -118 3z m140 -28 c56
-26 83 -59 94 -117 5 -27 14 -62 20 -77 25 -66 -3 -130 -69 -157 -46 -19 -173
-10 -201 15 -53 48 -84 191 -57 270 26 78 122 108 213 66z m-1538 -33 c32 -33
43 -101 31 -190 -15 -112 -66 -158 -173 -158 -103 0 -170 51 -162 125 13 126
48 203 107 233 64 33 159 28 197 -10z m1638 -362 c55 -24 70 -57 69 -157 0
-48 -7 -101 -13 -118 -17 -39 -65 -61 -138 -61 -80 0 -127 15 -157 51 -24 28
-26 39 -26 118 0 125 12 152 80 174 33 11 152 6 185 -7z m-1706 -21 c37 -19
42 -33 48 -141 8 -140 -22 -179 -152 -191 -73 -7 -141 13 -162 46 -7 11 -15
56 -19 100 -8 97 11 162 54 186 37 20 193 20 231 0z m1681 -354 c88 -64 83
-213 -8 -257 -62 -29 -183 -3 -232 51 -21 22 -25 36 -25 89 0 73 20 110 68
132 43 19 162 10 197 -15z m-1645 -21 c16 -16 29 -46 36 -82 21 -103 -28 -159
-152 -177 -75 -10 -114 1 -147 44 -60 75 -20 213 68 235 19 5 65 8 103 7 56
-2 71 -7 92 -27z m1584 -276 c42 -17 81 -59 81 -89 0 -9 -11 -31 -25 -50 -19
-24 -25 -43 -23 -70 3 -49 -19 -65 -91 -65 -133 0 -232 109 -171 187 15 19 19
35 14 59 -4 25 -2 35 13 43 24 16 150 6 202 -15z m-1540 -8 c7 -8 9 -25 5 -40
-4 -18 0 -33 15 -52 34 -43 27 -80 -22 -129 -58 -58 -154 -83 -210 -54 -31 17
-37 30 -31 65 4 24 0 38 -20 61 -14 17 -26 42 -26 55 0 34 50 79 107 94 67 18
167 18 182 0z m1409 -281 c60 -18 82 -49 82 -115 0 -72 -43 -120 -108 -120
-39 1 -105 33 -130 65 -27 34 -27 67 -3 121 30 67 64 77 159 49z m-1353 -29
c36 -36 51 -102 31 -143 -17 -36 -73 -69 -133 -79 -33 -5 -44 -2 -71 21 -38
32 -53 80 -42 131 10 44 29 65 73 81 56 20 115 16 142 -11z m1242 -207 c56
-27 93 -81 93 -133 0 -54 -22 -76 -76 -76 -95 0 -168 60 -188 156 -5 23 -1 37
15 58 20 26 26 28 68 22 25 -3 65 -16 88 -27z m-1099 -6 c20 -27 14 -76 -17
-124 -34 -55 -83 -87 -144 -95 -40 -6 -49 -3 -71 19 -64 64 -2 173 119 211 56
17 94 13 113 -11z m940 -151 c85 -65 113 -103 96 -130 -14 -23 -98 -68 -155
-83 -96 -26 -125 12 -117 151 9 149 47 162 176 62z m-792 37 c15 -17 20 -40
23 -111 6 -169 -13 -196 -117 -164 -71 22 -138 60 -152 86 -8 15 -7 27 4 48
26 51 171 162 212 162 6 0 19 -9 30 -21z m516 -121 c64 -70 104 -137 95 -161
-9 -25 -60 -46 -140 -59 -60 -9 -78 -8 -103 3 -27 14 -29 18 -28 69 0 68 28
164 54 190 34 34 60 25 122 -42z m-299 35 c28 -32 89 -162 94 -202 5 -33 2
-41 -18 -51 -34 -19 -137 -23 -194 -8 -73 19 -79 44 -31 145 58 121 108 160
149 116z"/>
<path d="M3146 1991 c5 -5 20 -12 34 -15 l25 -7 -25 15 c-28 17 -50 21 -34 7z"/>
<path d="M1370 1972 l-25 -14 30 7 c17 3 34 10 38 14 13 13 -16 8 -43 -7z"/>
<path d="M3195 1760 c-3 -5 3 -10 15 -10 12 0 18 5 15 10 -3 6 -10 10 -15 10
-5 0 -12 -4 -15 -10z"/>
<path d="M3125 1609 c-4 -5 -18 -15 -32 -20 -14 -5 -23 -12 -21 -15 8 -8 56
17 62 32 6 17 0 19 -9 3z"/>
<path d="M3160 1603 c0 -15 18 -35 27 -32 5 2 1 12 -9 22 -10 9 -18 14 -18 10z"/>
<path d="M1424 1583 c11 -13 26 -23 35 -22 14 0 14 1 1 6 -8 3 -24 13 -35 22
-20 16 -20 16 -1 -6z"/>
<path d="M3070 994 c0 -17 17 -36 24 -26 3 5 -1 15 -9 22 -8 7 -15 9 -15 4z"/>
</g>
</svg>
